<?xml version="1.0" encoding="iso-8859-1"?>
<!-- Generator: Adobe Illustrator 19.0.0, SVG Export Plug-In . SVG Version: 6.00 Build 0)  -->
<svg version="1.1" id="Layer_1" xmlns="http://www.w3.org/2000/svg" xmlns:xlink="http://www.w3.org/1999/xlink" x="0px" y="0px"
	 viewBox="0 0 512 512" style="enable-background:new 0 0 512 512;" xml:space="preserve">
<g>
	<g>
		<path d="M370.368,388.773L261.776,280.18c-3.192-3.19-8.364-3.19-11.555,0L141.285,389.116c-2.337,2.338-3.035,5.851-1.77,8.904
			c1.264,3.053,4.244,5.044,7.548,5.044h35.404V503.83c0,4.513,3.657,8.17,8.17,8.17h130.723c4.513,0,8.17-3.657,8.17-8.17V403.064
			h35.404c4.534,0,8.192-3.657,8.192-8.17C373.128,392.457,372.061,390.269,370.368,388.773z M321.361,386.723
			c-4.513,0-8.17,3.657-8.17,8.17V495.66H198.808V394.894c0-4.513-3.657-8.17-8.17-8.17h-23.85l89.212-89.212l89.212,89.212H321.361
			z"/>
	</g>
</g>
<g>
	<g>
		<path d="M403.063,68.286c-11,0-21.674,1.888-31.837,5.622c-9.355-20.422-23.918-37.924-42.487-50.961
			C307.362,7.934,282.21,0,255.999,0s-51.362,7.934-72.74,22.945c-18.569,13.039-33.132,30.539-42.487,50.961
			c-10.162-3.734-20.836-5.622-31.837-5.622c-51.057,0-92.596,41.538-92.596,92.596c0,51.057,41.538,92.596,92.596,92.596h261.447
			c4.513,0,8.17-3.657,8.17-8.17s-3.657-8.17-8.17-8.17H108.936c-42.047,0-76.255-34.208-76.255-76.255
			c0-42.048,34.208-76.255,76.255-76.255c11.437,0,22.441,2.474,32.702,7.355c2.061,0.98,4.435,1.053,6.554,0.205
			c2.117-0.849,3.782-2.546,4.593-4.678c16.188-42.567,57.668-71.167,103.216-71.167s87.028,28.6,103.217,71.167
			c0.81,2.132,2.475,3.829,4.593,4.678c2.118,0.849,4.493,0.777,6.554-0.205c10.261-4.88,21.264-7.355,32.702-7.355
			c42.047,0,76.255,34.207,76.255,76.255c0,42.047-34.208,76.255-76.255,76.255c-4.513,0-8.17,3.657-8.17,8.17s3.657,8.17,8.17,8.17
			c51.057,0,92.596-41.538,92.596-92.596C495.66,109.823,454.121,68.286,403.063,68.286z"/>
	</g>
</g>
<g>
	<g>
		<circle cx="130.723" cy="160.877" r="8.17"/>
	</g>
</g>
<g>
	<g>
		<circle cx="98.042" cy="193.558" r="8.17"/>
	</g>
</g>
<g>
</g>
<g>
</g>
<g>
</g>
<g>
</g>
<g>
</g>
<g>
</g>
<g>
</g>
<g>
</g>
<g>
</g>
<g>
</g>
<g>
</g>
<g>
</g>
<g>
</g>
<g>
</g>
<g>
</g>
</svg>
